<svg xmlns="http://www.w3.org/2000/svg" width="1200" height="630" viewBox="0 0 1200 630" role="img" aria-labelledby="placeholder-title placeholder-desc">
  <title id="placeholder-title">PRAVAH Placeholder Image</title>
  <desc id="placeholder-desc">A placeholder image for the PRAVAH National Demographic Intelligence Platform</desc>
  
  <defs>
    <linearGradient id="bg-gradient" x1="0%" y1="0%" x2="100%" y2="100%">
      <stop offset="0%" style="stop-color:hsl(222, 47%, 11%);stop-opacity:1" />
      <stop offset="100%" style="stop-color:hsl(215, 28%, 17%);stop-opacity:1" />
    </linearGradient>
    <linearGradient id="accent-gradient" x1="0%" y1="0%" x2="100%" y2="0%">
      <stop offset="0%" style="stop-color:hsl(38, 92%, 50%);stop-opacity:1" />
      <stop offset="100%" style="stop-color:hsl(32, 95%, 44%);stop-opacity:1" />
    </linearGradient>
  </defs>
  
  <!-- Background -->
  <rect width="100%" height="100%" fill="url(#bg-gradient)" />
  
  <!-- Grid pattern -->
  <g opacity="0.1" stroke="hsl(215, 20%, 55%)" stroke-width="1">
    <line x1="0" y1="0" x2="1200" y2="630" />
    <line x1="200" y1="0" x2="1400" y2="630" />
    <line x1="400" y1="0" x2="1600" y2="630" />
    <line x1="0" y1="200" x2="1200" y2="830" />
    <line x1="1200" y1="0" x2="0" y2="630" />
    <line x1="1000" y1="0" x2="-200" y2="630" />
    <line x1="800" y1="0" x2="-400" y2="630" />
  </g>
  
  <!-- Center content area -->
  <g transform="translate(600, 315)">
    <!-- Logo circle -->
    <circle cx="0" cy="-80" r="60" fill="url(#accent-gradient)" opacity="0.2" />
    <circle cx="0" cy="-80" r="45" fill="url(#accent-gradient)" opacity="0.4" />
    <circle cx="0" cy="-80" r="30" fill="url(#accent-gradient)" />
    
    <!-- Title -->
    <text x="0" y="20" text-anchor="middle" font-family="system-ui, -apple-system, sans-serif" font-size="48" font-weight="700" fill="hsl(210, 40%, 98%)">PRAVAH</text>
    
    <!-- Subtitle -->
    <text x="0" y="60" text-anchor="middle" font-family="system-ui, -apple-system, sans-serif" font-size="18" fill="hsl(215, 20%, 55%)">National Demographic Intelligence Platform</text>
    
    <!-- Tagline -->
    <text x="0" y="100" text-anchor="middle" font-family="system-ui, -apple-system, sans-serif" font-size="14" fill="hsl(38, 92%, 50%)">Census-as-a-Service • Privacy by Design</text>
  </g>
  
  <!-- Corner decorations -->
  <rect x="30" y="30" width="60" height="4" fill="url(#accent-gradient)" rx="2" />
  <rect x="30" y="30" width="4" height="60" fill="url(#accent-gradient)" rx="2" />
  
  <rect x="1110" y="30" width="60" height="4" fill="url(#accent-gradient)" rx="2" />
  <rect x="1166" y="30" width="4" height="60" fill="url(#accent-gradient)" rx="2" />
  
  <rect x="30" y="596" width="60" height="4" fill="url(#accent-gradient)" rx="2" />
  <rect x="30" y="540" width="4" height="60" fill="url(#accent-gradient)" rx="2" />
  
  <rect x="1110" y="596" width="60" height="4" fill="url(#accent-gradient)" rx="2" />
  <rect x="1166" y="540" width="4" height="60" fill="url(#accent-gradient)" rx="2" />
</svg>